P3
# CREATOR: GIMP PNM Filter Version 1.1
50 38
255
255
255
255
255
255
255
255
255
255
255
255
255
255
255
255
255
255
255
255
255
255
255
255
255
255
255
255
255
255
255
255
255
255
255
255
255
255
255
255
255
255
255
255
255
255
255
255
255
255
255
255
255
255
255
235
236
235
210
212
209
190
192
188
174
177
172
163
166
161
155
158
153
151
155
149
148
152
146
150
155
148
158
161
156
168
171
166
183
186
181
204
206
203
231
232
230
255
255
255
255
255
255
255
255
255
255
255
255
255
255
255
255
255
255
255
255
255
255
255
255
255
255
255
255
255
255
255
255
255
255
255
255
255
255
255
255
255
255
255
255
255
255
255
255
255
255
255
255
255
255
255
255
255
255
255
255
255
255
255
255
255
255
255
255
255
255
255
255
255
255
255
255
255
255
255
255
255
255
255
255
255
255
255
255
255
255
255
255
255
255
255
255
234
235
234
192
194
190
155
158
152
130
135
127
129
133
126
130
134
127
131
135
128
131
136
129
131
136
129
131
135
128
133
137
130
129
132
125
128
132
125
126
130
123
124
127
120
120
125
117
116
122
113
112
117
109
110
115
106
134
137
130
175
178
173
226
227
225
255
255
255
255
255
255
255
255
255
255
255
255
255
255
255
255
255
255
255
255
255
255
255
255
255
255
255
255
255
255
255
255
255
255
255
255
255
255
255
255
255
255
255
255
255
255
255
255
255
255
255
255
255
255
255
255
255
255
255
255
255
255
255
255
255
255
255
255
255
255
255
255
255
255
255
250
250
250
194
197
193
142
147
140
133
138
131
136
140
134
138
142
135
139
143
136
141
145
138
143
147
140
144
148
141
144
148
142
144
148
142
143
148
141
146
151
144
142
146
139
141
145
139
139
143
137
136
141
135
133
138
131
130
135
128
128
132
125
124
128
121
119
124
116
113
118
109
105
110
102
108
113
105
171
174
169
245
245
244
255
255
255
255
255
255
255
255
255
255
255
255
255
255
255
255
255
255
255
255
255
255
255
255
255
255
255
255
255
255
255
255
255
255
255
255
255
255
255
255
255
255
255
255
255
255
255
255
255
255
255
255
255
255
255
255
255
255
255
255
246
246
245
178
181
177
137
141
135
140
144
137
142
146
139
145
149
143
153
157
150
151
154
148
145
149
142
141
145
139
141
146
139
144
148
141
147
150
144
147
151
145
149
154
147
150
155
148
151
157
150
152
157
150
152
157
150
152
156
150
151
156
149
150
154
148
147
151
144
142
147
140
135
139
133
128
132
125
123
127
119
116
121
112
107
112
103
97
103
94
144
148
142
237
238
237
255
255
255
255
255
255
255
255
255
255
255
255
255
255
255
255
255
255
255
255
255
255
255
255
255
255
255
255
255
255
255
255
255
255
255
255
255
255
255
255
255
255
255
255
255
255
255
255
255
255
255
190
193
189
140
144
137
144
147
141
146
149
143
158
162
156
156
161
154
135
139
132
117
123
114
115
120
112
124
128
121
138
143
136
153
156
150
160
164
157
159
163
157
153
157
150
144
148
141
135
139
132
127
132
124
121
126
118
118
123
115
117
121
113
116
120
113
117
122
114
120
124
117
123
128
120
129
134
126
135
140
132
137
141
134
136
140
133
125
129
121
115
120
112
106
110
102
93
98
89
155
157
152
255
255
255
255
255
255
255
255
255
255
255
255
255
255
255
255
255
255
255
255
255
255
255
255
255
255
255
255
255
255
255
255
255
255
255
255
255
255
255
255
255
255
236
236
235
149
152
146
145
148
142
147
151
144
169
172
166
156
160
154
116
121
113
104
109
100
115
120
112
134
138
131
165
169
163
183
186
182
181
184
180
161
165
159
140
144
138
124
129
121
113
118
109
103
108
100
95
100
91
88
93
85
85
89
81
83
88
80
82
87
79
84
90
81
89
94
86
94
99
91
98
103
94
100
104
96
102
107
99
106
112
103
112
117
109
125
130
122
131
135
128
126
131
123
111
116
107
97
102
94
92
96
88
218
219
217
255
255
255
255
255
255
255
255
255
255
255
255
255
255
255
255
255
255
255
255
255
255
255
255
255
255
255
255
255
255
255
255
255
212
214
211
145
148
142
148
151
145
166
170
165
177
180
175
113
118
110
100
105
96
117
122
114
145
149
142
189
191
187
203
206
202
184
187
183
161
166
160
135
140
132
106
111
102
83
88
80
68
72
65
55
59
51
49
53
46
52
55
49
79
83
77
104
107
102
122
125
120
132
134
130
135
137
133
131
134
129
120
123
118
103
107
101
82
85
79
72
77
69
78
83
74
88
93
84
98
103
94
104
109
100
114
119
111
127
132
124
121
126
118
100
104
96
84
89
81
176
178
174
255
255
255
255
255
255
255
255
255
255
255
255
255
255
255
255
255
255
255
255
255
255
255
255
255
255
255
201
203
200
146
150
143
149
153
147
191
194
189
150
154
148
92
98
89
112
117
108
138
142
135
195
197
193
214
216
213
191
194
190
170
174
168
132
136
129
88
92
84
59
64
56
43
47
41
52
56
50
123
126
122
186
187
185
239
239
239
255
255
255
255
255
255
255
255
255
255
255
255
255
255
255
255
255
255
255
255
255
255
255
255
255
255
255
255
255
255
255
255
255
221
222
220
172
174
171
120
123
117
81
86
78
90
95
87
102
107
98
115
120
112
124
129
121
104
109
100
82
87
78
152
155
150
255
255
255
255
255
255
255
255
255
255
255
255
255
255
255
255
255
255
255
255
255
209
211
208
147
151
144
151
157
149
208
210
206
116
121
113
97
103
93
121
125
118
169
172
167
223
225
223
207
209
205
185
188
183
143
147
140
82
86
79
51
55
48
37
41
35
111
114
110
212
213
212
255
255
255
255
255
255
255
255
255
255
255
255
255
255
255
255
255
255
255
255
255
255
255
255
255
255
255
255
255
255
255
255
255
255
255
255
255
255
255
255
255
255
255
255
255
255
255
255
255
255
255
255
255
255
255
255
255
186
188
184
106
110
103
92
97
89
106
111
102
122
127
119
106
111
103
77
81
73
162
165
160
255
255
255
255
255
255
255
255
255
255
255
255
255
255
255
233
234
233
148
151
145
151
157
149
219
220
217
102
107
99
101
106
97
127
132
124
193
195
191
231
232
230
204
206
202
177
181
176
104
109
101
56
60
52
34
38
32
115
118
114
245
246
245
255
255
255
215
220
232
194
200
214
194
201
215
194
201
215
194
201
215
194
201
215
194
201
215
194
201
215
194
201
215
194
201
215
194
201
215
194
201
215
194
201
215
194
201
215
194
201
215
194
201
215
194
201
215
199
204
216
225
228
234
255
255
255
255
255
255
255
255
255
209
210
208
107
112
104
102
107
98
119
123
115
104
109
101
70
74
67
205
206
204
255
255
255
255
255
255
255
255
255
255
255
255
153
156
151
149
154
147
217
218
216
111
116
108
98
103
95
129
133
126
200
203
199
235
236
234
206
207
204
169
173
168
81
85
77
44
48
42
46
50
45
219
220
219
255
255
255
255
255
255
255
255
255
146
159
187
148
163
197
136
152
187
137
153
187
137
153
187
137
153
187
137
153
187
137
153
187
137
153
187
137
153
187
137
153
187
137
153
187
137
153
187
137
153
187
137
153
187
137
153
187
137
153
188
123
138
173
104
119
151
102
115
145
151
159
177
242
243
245
255
255
255
255
255
255
173
176
171
102
107
98
120
125
117
95
101
92
65
69
61
255
255
255
255
255
255
255
255
255
202
204
201
148
153
146
187
190
185
156
160
154
89
94
85
124
128
121
192
195
190
241
242
241
212
213
210
173
176
171
76
80
72
39
43
37
76
78
74
255
255
255
255
255
255
255
255
255
255
255
255
255
255
255
144
157
183
176
192
225
97
105
125
86
93
110
87
93
110
87
93
110
87
93
110
87
93
110
87
93
110
87
93
110
87
93
110
87
93
110
87
93
110
87
93
110
87
93
110
87
93
110
89
96
113
96
104
123
123
134
159
145
160
192
109
123
153
87
98
124
190
194
203
255
255
255
255
255
255
221
222
220
108
113
104
122
127
120
73
78
70
144
146
142
255
255
255
255
255
255
149
152
146
151
156
149
217
218
216
78
82
74
112
117
108
163
167
161
242
243
242
224
225
223
191
194
190
85
90
82
43
47
40
74
76
74
255
255
255
255
255
255
255
255
255
255
255
255
255
255
255
255
255
255
144
157
183
175
191
225
68
77
97
132
149
187
129
146
184
129
146
184
129
146
184
128
145
183
126
143
181
126
143
181
126
143
181
126
143
181
126
143
181
126
143
181
126
144
181
128
145
183
128
145
182
120
136
171
96
109
137
63
71
91
97
107
129
117
130
161
74
84
108
190
193
200
255
255
255
255
255
255
230
231
229
114
119
111
114
118
110
52
56
49
255
255
255
225
226
224
147
151
145
180
183
178
142
145
139
94
99
90
135
139
132
217
218
217
240
241
240
211
213
209
122
127
119
55
59
52
36
39
35
255
255
255
255
255
255
255
255
255
255
255
255
255
255
255
255
255
255
255
255
255
144
157
183
175
191
225
67
76
96
136
153
193
133
151
190
133
151
190
132
150
189
186
201
228
181
196
229
176
191
224
176
191
224
176
191
224
177
192
225
178
193
226
168
183
217
152
168
201
144
160
197
132
150
189
133
151
190
135
153
193
115
130
163
83
93
116
101
113
140
63
70
88
250
250
251
255
255
255
255
255
255
207
208
205
123
129
121
68
72
65
184
184
182
193
196
192
147
152
145
205
207
203
83
88
79
109
114
105
164
167
161
243
243
243
228
229
228
186
189
184
73
78
70
30
33
28
191
191
190
255
255
255
255
255
255
255
255
255
255
255
255
255
255
255
255
255
255
255
255
255
144
157
183
175
191
225
67
76
96
136
153
193
133
151
190
131
150
189
175
190
223
127
140
171
67
75
96
69
78
99
69
78
99
69
78
99
69
78
99
66
75
95
77
87
109
103
115
143
124
137
168
128
142
175
133
151
190
133
151
189
133
151
190
124
139
173
97
108
134
63
72
92
154
156
163
255
255
255
255
255
255
255
255
255
150
154
148
103
108
100
120
123
119
173
175
171
146
151
144
184
187
183
78
83
74
120
125
117
190
193
189
247
247
247
219
220
218
145
148
142
59
63
56
45
49
44
255
255
255
255
255
255
255
255
255
255
255
255
255
255
255
255
255
255
255
255
255
255
255
255
144
157
183
175
191
225
67
76
96
136
153
193
133
151
190
131
149
188
149
163
196
64
72
91
28
30
34
86
89
95
84
86
93
84
86
93
84
86
93
86
89
94
81
85
95
61
70
88
103
116
143
111
123
150
125
141
175
132
151
190
133
151
189
133
151
190
118
131
160
77
87
109
84
88
97
255
255
255
255
255
255
255
255
255
222
223
221
127
130
123
80
84
78
162
165
160
146
150
143
162
166
160
84
89
80
128
133
125
206
208
205
244
244
244
214
216
213
116
121
113
50
54
47
124
126
124
255
255
255
255
255
255
255
255
255
255
255
255
255
255
255
255
255
255
255
255
255
255
255
255
144
157
183
175
191
225
67
76
96
136
153
193
133
151
190
131
150
189
138
153
183
66
74
95
90
92
97
255
255
255
255
255
255
255
255
255
255
255
255
255
255
255
255
255
255
227
229
232
93
105
134
150
164
196
85
96
121
134
152
191
133
151
190
132
150
189
132
147
180
84
94
119
47
51
60
255
255
255
255
255
255
255
255
255
255
255
255
141
145
138
65
70
64
160
164
159
144
147
141
146
150
143
87
91
83
131
135
128
209
211
208
242
242
242
210
212
209
107
111
103
47
51
44
165
166
164
255
255
255
255
255
255
255
255
255
255
255
255
255
255
255
255
255
255
255
255
255
255
255
255
144
157
183
175
191
225
67
76
96
136
153
193
133
151
190
131
150
189
138
153
184
66
74
95
88
89
95
255
255
255
255
255
255
255
255
255
255
255
255
255
255
255
255
255
255
255
255
255
145
157
181
163
179
213
76
85
106
135
153
193
133
151
190
132
150
189
144
159
193
85
96
120
40
42
50
255
255
255
255
255
255
255
255
255
255
255
255
158
163
157
69
73
68
170
173
168
140
144
138
144
149
142
86
91
82
127
132
124
202
204
201
241
241
241
208
210
206
113
118
110
49
53
46
167
169
167
255
255
255
255
255
255
255
255
255
255
255
255
255
255
255
255
255
255
255
255
255
255
255
255
144
157
183
175
191
225
67
76
96
136
153
193
133
151
190
131
150
189
138
153
184
66
74
95
88
89
95
255
255
255
255
255
255
255
255
255
255
255
255
255
255
255
255
255
255
255
255
255
153
165
191
177
192
227
69
77
95
135
154
193
133
151
190
131
149
188
153
168
201
76
86
108
37
39
44
255
255
255
255
255
255
255
255
255
255
255
255
162
165
160
83
86
81
192
194
190
135
139
133
145
149
142
89
94
85
120
124
116
182
185
180
240
241
240
208
210
206
136
140
133
60
63
56
137
139
136
255
255
255
255
255
255
255
255
255
255
255
255
255
255
255
255
255
255
255
255
255
255
255
255
144
157
183
175
191
225
67
76
96
136
153
193
133
151
190
131
149
189
138
153
184
66
74
95
87
89
94
255
255
255
255
255
255
255
255
255
255
255
255
255
255
255
255
255
255
249
250
252
131
148
186
201
216
243
54
61
80
135
153
192
133
151
190
134
152
191
162
176
210
55
62
79
75
75
77
255
255
255
255
255
255
255
255
255
255
255
255
142
146
139
118
120
117
232
232
231
128
132
124
138
143
136
105
111
102
110
115
106
153
157
151
233
234
232
212
214
211
170
173
168
72
77
69
73
76
71
255
255
255
255
255
255
255
255
255
255
255
255
255
255
255
255
255
255
255
255
255
255
255
255
144
157
183
175
191
225
67
76
96
136
153
193
133
151
190
132
150
189
132
146
177
70
79
101
83
90
103
192
199
213
193
199
214
193
199
214
193
199
214
193
199
214
184
192
211
132
149
186
185
202
234
111
119
129
103
116
146
133
151
190
129
147
187
181
196
227
117
130
159
22
24
33
160
161
161
255
255
255
255
255
255
255
255
255
228
229
227
98
102
96
195
195
194
255
255
255
137
140
133
131
135
129
128
132
125
100
106
97
131
135
128
198
201
197
222
223
221
190
192
188
112
117
108
59
63
55
209
210
208
255
255
255
255
255
255
255
255
255
255
255
255
255
255
255
255
255
255
255
255
255
144
157
183
175
191
225
67
76
96
136
153
193
133
151
190
132
150
189
118
132
163
112
124
153
128
143
177
134
150
184
134
151
186
134
151
186
134
151
186
134
150
185
152
168
204
204
220
249
125
133
143
55
63
82
132
151
190
136
153
191
191
207
232
158
173
204
49
55
71
18
18
19
255
255
255
255
255
255
255
255
255
255
255
255
182
185
180
59
61
56
255
255
255
255
255
255
209
211
208
120
125
117
132
136
129
112
116
108
117
121
113
149
153
147
220
221
219
198
201
197
167
171
165
84
89
81
80
83
77
255
255
255
255
255
255
255
255
255
255
255
255
255
255
255
255
255
255
255
255
255
144
157
183
175
191
225
67
76
96
136
153
193
133
151
190
133
151
190
132
150
188
77
87
110
81
88
105
87
94
111
88
96
113
88
96
113
88
96
113
88
96
113
82
89
103
36
40
52
113
123
144
176
192
225
188
203
234
191
206
234
119
132
162
47
53
68
9
9
11
213
213
214
255
255
255
255
255
255
255
255
255
223
224
222
112
116
110
156
157
155
255
255
255
255
255
255
255
255
255
140
144
138
122
127
119
128
132
126
112
117
108
127
131
124
165
169
164
212
214
210
182
185
180
149
153
146
78
84
75
121
124
119
255
255
255
255
255
255
255
255
255
255
255
255
255
255
255
255
255
255
144
157
183
175
191
225
67
76
96
136
153
193
133
151
190
133
151
190
132
150
189
133
151
191
125
143
180
122
139
176
122
139
176
123
140
176
125
142
178
125
142
179
125
142
179
184
200
231
158
173
203
106
118
146
87
97
121
54
61
79
20
23
31
26
25
27
218
218
219
255
255
255
255
255
255
255
255
255
242
243
242
151
155
148
56
59
56
255
255
255
255
255
255
255
255
255
255
255
255
246
247
246
110
115
107
120
125
117
126
129
122
118
122
114
134
137
131
169
173
167
198
201
197
170
175
169
144
148
141
84
89
81
128
132
126
255
255
255
255
255
255
255
255
255
255
255
255
255
255
255
144
157
183
175
191
225
67
76
96
136
153
193
133
151
190
133
151
190
131
149
189
184
200
227
181
196
229
176
191
225
177
192
225
164
179
213
150
166
200
136
153
191
136
154
192
153
167
199
45
52
67
16
19
26
26
28
34
68
69
70
168
168
168
255
255
255
255
255
255
255
255
255
255
255
255
239
239
238
155
159
152
44
48
43
231
232
231
255
255
255
255
255
255
255
255
255
255
255
255
255
255
255
225
226
225
106
111
102
117
122
114
123
127
119
123
128
120
136
141
134
161
165
159
187
190
186
163
167
160
144
148
142
100
105
97
105
108
101
238
239
238
255
255
255
255
255
255
255
255
255
144
157
183
175
191
225
67
76
96
136
153
193
133
151
190
132
150
189
175
191
223
130
143
174
69
78
99
71
80
102
70
79
101
85
96
120
116
129
159
120
134
164
139
156
191
112
125
154
68
77
99
101
112
136
185
192
206
252
252
254
255
255
255
255
255
255
255
255
255
255
255
255
209
211
208
151
155
148
52
55
50
195
196
195
255
255
255
255
255
255
255
255
255
255
255
255
255
255
255
255
255
255
255
255
255
219
220
218
100
105
97
112
117
108
120
125
117
125
129
122
137
142
135
152
155
149
172
176
170
157
162
155
142
145
139
121
126
118
93
98
90
165
168
163
255
255
255
255
255
255
144
157
183
175
191
225
67
76
96
136
153
193
133
151
190
131
149
188
150
164
196
63
72
91
27
28
33
81
84
91
80
83
90
64
69
82
73
84
107
122
136
167
103
116
145
107
120
148
117
129
157
145
160
193
109
123
154
94
106
134
153
160
175
255
255
255
233
234
233
164
167
161
138
142
135
42
45
40
187
188
187
255
255
255
255
255
255
255
255
255
255
255
255
255
255
255
255
255
255
255
255
255
255
255
255
255
255
255
232
232
231
102
107
99
104
109
100
114
119
111
122
126
118
133
137
130
145
149
142
158
162
156
157
161
155
140
144
137
129
133
125
114
119
111
100
105
97
168
170
164
136
149
175
175
191
225
67
76
96
136
153
193
133
151
190
131
150
189
138
153
183
66
74
95
90
92
97
255
255
255
255
255
255
255
255
255
148
155
168
90
102
131
133
146
176
104
117
146
89
100
126
61
69
86
100
110
132
132
145
177
79
89
114
102
108
116
150
154
146
103
107
101
29
32
27
212
212
211
255
255
255
255
255
255
255
255
255
255
255
255
255
255
255
255
255
255
255
255
255
255
255
255
255
255
255
255
255
255
255
255
255
253
253
253
137
141
135
93
98
89
105
110
101
114
119
111
122
127
119
135
138
132
146
150
144
154
158
152
147
151
145
136
140
133
126
130
123
118
123
113
112
125
151
175
191
225
67
76
96
136
153
193
133
151
190
131
150
189
138
153
184
66
74
95
87
89
95
255
255
255
255
255
255
255
255
255
255
255
255
117
127
152
127
142
174
99
110
135
133
150
187
135
153
192
115
130
163
78
88
111
101
113
140
59
68
87
52
57
54
79
82
79
248
248
248
255
255
255
255
255
255
255
255
255
255
255
255
255
255
255
255
255
255
255
255
255
255
255
255
255
255
255
255
255
255
255
255
255
255
255
255
255
255
255
255
255
255
208
209
207
99
104
95
90
95
87
101
106
97
110
115
106
118
122
115
130
134
127
140
144
137
147
151
145
147
150
144
141
145
136
117
131
157
175
191
225
67
76
96
136
153
193
133
151
190
131
150
189
138
153
184
66
74
95
65
68
71
185
187
182
181
185
180
178
181
177
170
173
168
135
140
145
95
108
139
137
151
181
101
113
142
133
151
190
132
151
190
131
147
183
96
107
132
81
92
116
83
89
103
255
255
255
255
255
255
255
255
255
255
255
255
255
255
255
255
255
255
255
255
255
255
255
255
255
255
255
255
255
255
255
255
255
255
255
255
255
255
255
255
255
255
255
255
255
255
255
255
255
255
255
255
255
255
190
192
188
99
102
95
83
88
79
93
98
89
99
105
96
108
113
105
116
120
112
126
130
123
136
139
131
118
131
158
175
191
225
67
76
96
136
153
193
133
151
190
131
150
189
138
153
184
66
74
95
54
57
60
143
147
140
142
146
139
144
148
142
147
151
144
153
155
148
104
114
137
121
135
167
104
115
140
130
147
184
132
150
189
133
151
190
110
124
154
102
114
141
62
71
91
190
193
198
255
255
255
255
255
255
255
255
255
255
255
255
255
255
255
255
255
255
255
255
255
255
255
255
255
255
255
255
255
255
255
255
255
255
255
255
255
255
255
255
255
255
255
255
255
255
255
255
255
255
255
255
255
255
255
255
255
214
215
213
137
140
134
76
81
72
78
83
74
84
89
80
90
95
86
95
100
90
110
124
150
175
191
225
67
76
96
136
153
193
133
151
190
131
150
189
138
153
184
66
74
95
50
53
56
128
133
125
120
124
116
110
114
107
97
101
94
79
83
76
68
74
74
95
109
140
140
154
185
97
109
137
133
152
191
133
150
190
133
151
189
96
107
133
93
105
130
65
73
90
255
255
255
255
255
255
255
255
255
255
255
255
255
255
255
255
255
255
255
255
255
255
255
255
255
255
255
255
255
255
255
255
255
255
255
255
255
255
255
255
255
255
255
255
255
255
255
255
255
255
255
255
255
255
255
255
255
255
255
255
255
255
255
255
255
255
212
213
211
156
158
154
107
111
105
69
73
64
102
116
141
175
191
225
67
76
96
136
153
193
133
151
190
131
150
189
138
153
184
66
74
95
32
35
38
63
67
59
57
61
53
51
55
48
51
54
48
86
89
84
139
141
136
126
136
157
117
130
162
108
120
146
128
145
180
132
150
190
133
151
190
122
137
170
99
111
138
70
80
102
143
148
157
255
255
255
255
255
255
255
255
255
255
255
255
255
255
255
255
255
255
255
255
255
255
255
255
255
255
255
255
255
255
255
255
255
255
255
255
255
255
255
255
255
255
255
255
255
255
255
255
255
255
255
255
255
255
255
255
255
255
255
255
255
255
255
255
255
255
255
255
255
255
255
255
255
255
255
143
156
182
175
191
225
67
76
96
136
153
193
133
151
190
131
150
189
138
153
184
66
74
95
61
64
68
184
185
183
206
207
205
239
239
238
255
255
255
255
255
255
255
255
255
231
233
238
94
107
136
141
155
186
94
106
133
134
152
191
133
151
189
134
152
191
100
112
139
100
112
139
61
69
87
233
234
236
255
255
255
255
255
255
255
255
255
255
255
255
255
255
255
255
255
255
255
255
255
255
255
255
255
255
255
255
255
255
255
255
255
255
255
255
255
255
255
255
255
255
255
255
255
255
255
255
255
255
255
255
255
255
255
255
255
255
255
255
255
255
255
255
255
255
255
255
255
255
255
255
144
157
183
175
191
225
67
75
95
133
151
191
130
148
187
128
147
187
137
152
183
66
74
95
88
89
95
255
255
255
255
255
255
255
255
255
255
255
255
255
255
255
255
255
255
255
255
255
143
151
171
113
127
157
113
125
151
124
140
175
129
148
187
129
148
187
127
144
180
94
105
131
82
92
117
97
103
117
255
255
255
255
255
255
255
255
255
255
255
255
255
255
255
255
255
255
255
255
255
255
255
255
255
255
255
255
255
255
255
255
255
255
255
255
255
255
255
255
255
255
255
255
255
255
255
255
255
255
255
255
255
255
255
255
255
255
255
255
255
255
255
255
255
255
255
255
255
255
255
255
144
157
183
175
191
225
105
116
141
178
193
227
176
190
225
175
190
224
168
183
213
65
73
93
88
89
95
255
255
255
255
255
255
255
255
255
255
255
255
255
255
255
255
255
255
255
255
255
241
242
244
94
107
136
140
154
186
129
142
172
177
191
225
176
191
224
176
191
225
159
173
202
122
135
162
62
70
91
192
194
200
255
255
255
255
255
255
255
255
255
255
255
255
255
255
255
255
255
255
255
255
255
255
255
255
255
255
255
255
255
255
255
255
255
255
255
255
255
255
255
255
255
255
255
255
255
255
255
255
255
255
255
255
255
255
255
255
255
255
255
255
255
255
255
255
255
255
255
255
255
146
159
186
108
120
149
74
83
105
73
81
104
73
82
104
73
82
104
73
82
104
62
70
89
88
89
95
255
255
255
255
255
255
255
255
255
255
255
255
255
255
255
255
255
255
255
255
255
255
255
255
154
162
179
98
110
139
71
80
101
70
78
100
70
79
100
70
79
100
69
78
100
72
82
104
72
82
104
68
75
93
255
255
255
255
255
255
255
255
255
255
255
255
255
255
255
255
255
255
255
255
255
255
255
255
255
255
255
255
255
255
255
255
255
255
255
255
255
255
255
255
255
255
255
255
255
255
255
255
255
255
255
255
255
255
255
255
255
255
255
255
255
255
255
255
255
255
255
255
255
155
161
175
84
86
93
81
84
90
81
84
90
81
84
90
81
84
90
82
85
91
79
81
89
126
128
132
255
255
255
255
255
255
255
255
255
255
255
255
255
255
255
255
255
255
255
255
255
255
255
255
247
248
250
98
102
112
89
92
97
89
92
97
89
92
97
89
92
97
89
92
97
89
92
97
89
91
97
93
96
103
187
190
195
255
255
255
255
255
255
255
255
255
